<svg width="400" height="300" viewBox="0 0 400 300" fill="none" xmlns="http://www.w3.org/2000/svg">
  <rect width="400" height="300" fill="#F0F9FF"/>
  <circle cx="200" cy="150" r="80" fill="#E0F2FE" stroke="#0284C7" stroke-width="3"/>
  
  <!-- Mosquito icon -->
  <g transform="translate(160, 110)">
    <!-- Body -->
    <line x1="40" y1="40" x2="40" y2="60" stroke="#374151" stroke-width="3"/>
    <!-- Head -->
    <circle cx="40" cy="40" r="8" fill="#1F2937"/>
    <!-- Wings -->
    <path d="M 40 45 Q 50 35 60 45" stroke="#64748B" stroke-width="2" fill="none"/>
    <path d="M 40 45 Q 30 35 20 45" stroke="#64748B" stroke-width="2" fill="none"/>
    <!-- Proboscis -->
    <line x1="40" y1="32" x2="40" y2="25" stroke="#1F2937" stroke-width="1"/>
    <!-- Legs -->
    <line x1="40" y1="50" x2="50" y2="55" stroke="#374151" stroke-width="1"/>
    <line x1="40" y1="50" x2="30" y2="55" stroke="#374151" stroke-width="1"/>
    <line x1="40" y1="55" x2="45" y2="60" stroke="#374151" stroke-width="1"/>
    <line x1="40" y1="55" x2="35" y2="60" stroke="#374151" stroke-width="1"/>
  </g>
  
  <!-- Mosquito net icon -->
  <g transform="translate(280, 180)">
    <rect x="0" y="0" width="40" height="30" fill="#F1F5F9" stroke="#64748B" stroke-width="1"/>
    <line x1="0" y1="0" x2="40" y2="0" stroke="#64748B" stroke-width="1"/>
    <line x1="0" y1="10" x2="40" y2="10" stroke="#64748B" stroke-width="1"/>
    <line x1="0" y1="20" x2="40" y2="20" stroke="#64748B" stroke-width="1"/>
    <line x1="0" y1="30" x2="40" y2="30" stroke="#64748B" stroke-width="1"/>
    <line x1="0" y1="0" x2="0" y2="30" stroke="#64748B" stroke-width="1"/>
    <line x1="10" y1="0" x2="10" y2="30" stroke="#64748B" stroke-width="1"/>
    <line x1="20" y1="0" x2="20" y2="30" stroke="#64748B" stroke-width="1"/>
    <line x1="30" y1="0" x2="30" y2="30" stroke="#64748B" stroke-width="1"/>
    <line x1="40" y1="0" x2="40" y2="30" stroke="#64748B" stroke-width="1"/>
  </g>
  
  <text x="200" y="280" text-anchor="middle" fill="#0284C7" font-family="Arial" font-size="18" font-weight="bold">Mosquito Control</text>
</svg>
